<svg viewBox="0 0 3114 1408" xmlns="http://www.w3.org/2000/svg" fill-rule="evenodd" clip-rule="evenodd" stroke-linejoin="round" stroke-miterlimit="2"><path d="M967.645 4.444v469.025l431.339-372.034V4.444H967.645z" fill-rule="nonzero"/><path d="M2040.97 0c-296.475 15.658-469.364 52.274-641.981 223.176L967.65 595.413v374.292c0 71.177-20.906 118.152-62.82 140.502-41.864 22.367-119.426 33.644-232.466 33.644-117.354 0-190.653-12.415-219.983-36.888-29.262-24.421-44.122-75.031-44.122-151.863V827.471H0v194.831c0 154.972 59.118 257.075 177.797 306.632 118.678 49.556 302.317 74.573 550.832 74.573 251.368 0 426.04-32.183 523.761-96.465 61.564-40.471 103.547-100.506 126.372-179.784 25.135 56.86 59.441 104.481 102.901 142.965 103.275 91.488 298.853 137.326 586.514 137.326h312.253c221.987 0 399.699-29.789 533.051-89.162 133.352-59.305 199.688-164.329 199.688-315.123-1.393-19.564-2.649-39.265-4.042-59.509-1.393-20.227-2.072-42.916-2.072-68.051h-422.847v102.493c0 51.68-21.891 85.578-65.215 101.627-43.325 16.049-108.268 23.879-194.831 23.879-26.477 0-52.886-.136-79.346-.799-26.545-.662-53.87-1.188-81.876-1.188h-27.122c-27.869 1.324-55.263 1.987-81.808 1.987h-77.341c-125.659 0-208.52-17.17-248.328-51.408-39.792-34.171-59.492-119.545-59.492-256.412V603.107c0-68.477 4.772-120.343 14.52-155.974 9.817-35.563 30.587-66.064 61.955-91.947 31.453-25.797 73.843-41.133 127.646-45.311 53.734-4.246 128.834-6.097 225.162-6.097h64.808c88.041 0 157.757 1.851 209.437 6.097 51.612 4.178 92.813 13.671 123.535 28.328 30.706 14.656 48.555 33.168 53.463 55.467 4.909 22.35 12.143 55.79 21.892 100.506h425.309c0-83.795-6.096-153.052-18.63-208.247-12.619-55.128-44.785-107.674-96.397-157.961-51.679-50.219-125.047-84.185-219.983-101.627C2666.63 8.882 2550.533 0 2413.666 0H2040.97z" fill-rule="nonzero"/></svg>
